# xmcd CD database file
#
# Track frame offsets:
#	182
#	5367
#	24260
#	72285
#	80725
#	103235
#	183117
#
# Disc length: 2878 seconds
#
# Revision: 1
# Processed by: cddbd v1.4PL0 Copyright (c) Steve Scherf et al.
# Submitted via: CDex 1.50beta10
#
DISCID=4e0b3c07
DTITLE=Pierre Dørge - Landscape With Open Door
DYEAR=1996
DGENRE=Jazz
TTITLE0=Song For Irene
TTITLE1=Tribute For Master Tchicai
TTITLE2=Landscape With Open Door
TTITLE3=Mirjam's Blue Umbrella
TTITLE4=Bossa Kodania
TTITLE5=Green Symmetry - Wiches Weep And Dance
TTITLE6=Tai-Gong
EXTD=YEAR: 1996
EXTT0=
EXTT1=
EXTT2=
EXTT3=
EXTT4=
EXTT5=
EXTT6=
PLAYORDER=
